<svg width="48" height="48" viewBox="0 0 48 48" fill="none" xmlns="http://www.w3.org/2000/svg">
<path d="M20 22H22V42H20V44H16V42H14V22H16V20H20V22ZM22 10H24V12H22V10ZM24 12H26V14H24V12ZM32 16H34V20H32V22H28V20H26V16H28V14H32V16ZM32 30H34V42H32V44H28V42H26V30H28V28H32V30ZM34 12H36V14H34V12ZM36 10H38V12H36V10ZM46 4V8H44V10H40V8H38V4H40V2H44V4H46ZM44 22H46V42H44V44H40V42H38V22H40V20H44V22ZM10 14H12V16H10V14ZM8 18H10V22H8V24H4V22H2V18H4V16H8V18ZM8 32H10V42H8V44H4V42H2V32H4V30H8V32ZM12 12H14V14H12V12ZM16 8H14V4H16V2H20V4H22V8H20V10H16V8Z" fill="#153799"/>
</svg>
