<svg width="48" height="48" viewBox="0 0 48 48" fill="none" xmlns="http://www.w3.org/2000/svg">
<path d="M37.85 6.27435C37.2876 5.71167 36.6199 5.26534 35.8849 4.96088C35.1499 4.65643 34.3621 4.49981 33.5666 4.5C32.771 4.50019 31.9833 4.65717 31.2485 4.96196C30.5137 5.26676 29.8461 5.7134 29.284 6.27635L10.27 25.3164C9.13707 26.4519 8.50056 27.9903 8.5 29.5944V36.0004C8.5 36.8284 9.172 37.5004 10 37.5004H16.446C18.052 37.5004 19.592 36.8604 20.726 35.7264L39.726 16.7144C40.8594 15.5783 41.4959 14.0391 41.4959 12.4344C41.4959 10.8296 40.8594 9.29041 39.726 8.15435L37.85 6.27435ZM8 40.5004C7.60218 40.5004 7.22064 40.6584 6.93934 40.9397C6.65804 41.221 6.5 41.6025 6.5 42.0004C6.5 42.3982 6.65804 42.7797 6.93934 43.061C7.22064 43.3423 7.60218 43.5004 8 43.5004H40C40.3978 43.5004 40.7794 43.3423 41.0607 43.061C41.342 42.7797 41.5 42.3982 41.5 42.0004C41.5 41.6025 41.342 41.221 41.0607 40.9397C40.7794 40.6584 40.3978 40.5004 40 40.5004H8Z" fill="#153799"/>
</svg>
