<svg width="47" height="41" viewBox="0 0 47 41" fill="none" xmlns="http://www.w3.org/2000/svg">
<path fill-rule="evenodd" clip-rule="evenodd" d="M16.9328 0.858874C7.0639 7.46898 1.58119 15.163 0.484647 23.9409C-1.22308 37.6054 10.4938 44.2934 16.4308 38.2847C22.3679 32.276 18.8096 24.6476 14.5108 22.5618C10.212 20.476 7.5829 21.2031 8.04162 18.4161C8.50033 15.6291 14.6156 7.90501 19.9891 4.30745C20.1793 4.13839 20.3006 3.90016 20.3283 3.64118C20.3561 3.3822 20.2882 3.12192 20.1385 2.91326L18.8096 1.11038C18.2329 0.328534 17.6798 0.358605 16.9328 0.857506M42.9169 0.858874C33.048 7.46898 27.5653 15.163 26.4688 23.9409C24.7597 37.6054 36.4766 44.2934 42.4136 38.2847C48.3507 32.276 44.7924 24.6476 40.4923 22.5618C36.1922 20.476 33.5644 21.2031 34.0231 18.4161C34.4818 15.6291 40.5984 7.90501 45.9719 4.30745C46.1619 4.1382 46.2829 3.89987 46.3104 3.6409C46.3379 3.38194 46.2699 3.12176 46.12 2.91326L44.7924 1.11038C44.2157 0.328534 43.6626 0.358605 42.9169 0.857506" fill="#153799"/>
</svg>
