<svg width="48" height="48" viewBox="0 0 48 48" fill="none" xmlns="http://www.w3.org/2000/svg">
<g clip-path="url(#clip0_2249_88836)">
<path fill-rule="evenodd" clip-rule="evenodd" d="M10.3625 25.8653L8.79907 24.5762L7.78764 26.3316L0.231072 39.4219C0.0627924 39.7153 -0.0149058 40.052 0.0077593 40.3895C0.0304244 40.7271 0.152439 41.0503 0.358443 41.3186C0.564446 41.587 0.845228 41.7883 1.16544 41.8974C1.48565 42.0065 1.83097 42.0184 2.15793 41.9316L8.66879 40.1899L10.4105 46.6973C10.4985 47.0247 10.6816 47.3187 10.9366 47.542C11.1917 47.7654 11.5072 47.9081 11.8434 47.9521C12.1795 47.9961 12.5211 47.9395 12.8251 47.7894C13.1291 47.6393 13.3817 47.4024 13.5511 47.1087L20.1099 35.7567L20.8334 34.4985L19.7156 33.5727L10.3625 25.8653ZM37.6402 25.8653L39.2036 24.5762L40.2151 26.3316L47.7716 39.4219C47.9404 39.7156 48.0183 40.0527 47.9956 40.3907C47.9728 40.7287 47.8505 41.0524 47.644 41.3209C47.4375 41.5894 47.156 41.7907 46.8352 41.8994C46.5144 42.0081 46.1685 42.0193 45.8414 41.9316L39.3339 40.1899L37.5888 46.6973C37.5008 47.0247 37.3177 47.3187 37.0627 47.542C36.8076 47.7654 36.4921 47.9081 36.1559 47.9521C35.8198 47.9961 35.4781 47.9395 35.1742 47.7894C34.8702 47.6393 34.6176 47.4024 34.4482 47.1087L27.8928 35.7602L27.1659 34.5019L28.2871 33.5762L37.6402 25.8653Z" fill="#2859C5"/>
<path fill-rule="evenodd" clip-rule="evenodd" d="M23.9933 0.03125C19.3331 0.03125 14.8637 1.88252 11.5684 5.1778C8.27314 8.47308 6.42188 12.9424 6.42188 17.6027C6.42188 22.2629 8.27314 26.7323 11.5684 30.0276C14.8637 33.3228 19.3331 35.1741 23.9933 35.1741C28.6535 35.1741 33.1229 33.3228 36.4182 30.0276C39.7135 26.7323 41.5647 22.2629 41.5647 17.6027C41.5647 12.9424 39.7135 8.47308 36.4182 5.1778C33.1229 1.88252 28.6535 0.03125 23.9933 0.03125Z" fill="#8FBFFA"/>
<path d="M24.6846 8.34169L27.0263 13.0491C27.0772 13.1688 27.1595 13.2725 27.2645 13.3492C27.3696 13.4258 27.4934 13.4726 27.6229 13.4845L32.8206 14.2731C32.9695 14.2921 33.1098 14.3532 33.2251 14.4492C33.3404 14.5452 33.426 14.6721 33.4717 14.8151C33.5174 14.958 33.5214 15.111 33.4832 15.2561C33.445 15.4012 33.3662 15.5324 33.256 15.6343L29.4195 19.2823C29.3618 19.3911 29.3317 19.5123 29.3317 19.6354C29.3317 19.7585 29.3618 19.8798 29.4195 19.9885L30.1532 25.1623C30.1841 25.3111 30.1712 25.4658 30.1162 25.6075C30.0613 25.7493 29.9665 25.8721 29.8433 25.9612C29.7201 26.0504 29.5738 26.102 29.4219 26.1099C29.2701 26.1178 29.1192 26.0816 28.9875 26.0057L24.3589 23.5543C24.2388 23.4998 24.1085 23.4716 23.9766 23.4716C23.8448 23.4716 23.7144 23.4998 23.5943 23.5543L18.9658 26.0057C18.834 26.0816 18.6831 26.1178 18.5313 26.1099C18.3795 26.102 18.2331 26.0504 18.1099 25.9612C17.9868 25.8721 17.892 25.7493 17.837 25.6075C17.782 25.4658 17.7692 25.3111 17.8 25.1623L18.6675 19.9885C18.7053 19.8687 18.7125 19.7413 18.6885 19.618C18.6646 19.4947 18.6102 19.3793 18.5303 19.2823L14.6972 15.6068C14.5951 15.5038 14.5234 15.3747 14.49 15.2336C14.4566 15.0925 14.4627 14.9449 14.5077 14.807C14.5527 14.6692 14.6348 14.5464 14.7451 14.4522C14.8553 14.358 14.9894 14.2961 15.1326 14.2731L20.3338 13.512C20.4633 13.5 20.5871 13.4532 20.6921 13.3766C20.7972 13.2999 20.8795 13.1962 20.9303 13.0765L23.272 8.36569C23.3347 8.23215 23.4336 8.11886 23.5574 8.0387C23.6812 7.95854 23.8251 7.91472 23.9726 7.91222C24.1201 7.90972 24.2653 7.94864 24.3918 8.02456C24.5182 8.10048 24.6209 8.21035 24.688 8.34169H24.6846Z" fill="#2859C5"/>
</g>
<defs>
<clipPath id="clip0_2249_88836">
<rect width="48" height="48" fill="white"/>
</clipPath>
</defs>
</svg>
