<svg width="312" height="207" viewBox="0 0 312 207" fill="none" xmlns="http://www.w3.org/2000/svg">
<path d="M1.91208 200.558C1.11553 200.33 0.2853 200.791 0.0577139 201.588C-0.169872 202.384 0.291366 203.215 1.08792 203.442L1.5 202L1.91208 200.558ZM88.1154 197.646L87.6362 196.224L88.1154 197.646ZM109.65 182.872L111.067 183.363L109.65 182.872ZM114.967 146.033L113.518 146.42L114.967 146.033ZM66.2577 140L67.5711 140.725L66.2577 140ZM66.2577 167.476L67.7136 167.115L66.2577 167.476ZM100.467 185.493L100.043 186.932L100.467 185.493ZM144.946 177.837L145.462 179.245L144.946 177.837ZM183.485 117.141L184.951 117.459L183.485 117.141ZM172.237 75.5242L173.359 74.5291L172.237 75.5242ZM166.77 112.546L167.169 113.992L166.77 112.546ZM225.152 63.1726L224.078 62.1248L224.037 62.1671L223.999 62.2126L225.152 63.1726ZM278.224 23.2563L277.371 22.0223L278.224 23.2563ZM312 6L295.451 0.88957L299.3 17.777L312 6ZM1.5 202L1.08792 203.442C14.7764 207.353 33.4286 207.33 50.1589 205.824C66.9025 204.316 81.9799 201.297 88.5946 199.067L88.1154 197.646L87.6362 196.224C81.3354 198.349 66.5184 201.339 49.8898 202.836C33.2479 204.334 15.0502 204.311 1.91208 200.558L1.5 202ZM88.1154 197.646L88.5946 199.067C100.143 195.174 108.001 192.215 111.067 183.363L109.65 182.872L108.232 182.381C105.724 189.622 99.4964 192.226 87.6362 196.224L88.1154 197.646ZM109.65 182.872L111.067 183.363C113.961 175.009 115.797 167.496 116.664 161.135C117.529 154.801 117.447 149.508 116.416 145.646L114.967 146.033L113.518 146.42C114.403 149.734 114.531 154.579 113.692 160.73C112.856 166.855 111.076 174.173 108.232 182.381L109.65 182.872ZM114.967 146.033L116.416 145.646C113.918 136.293 105.364 131.473 96.7482 129.618C92.4063 128.684 87.9396 128.47 83.989 128.825C80.0697 129.178 76.5211 130.102 74.0972 131.554L74.8681 132.841L75.639 134.128C77.5203 133.001 80.5653 132.145 84.2576 131.813C87.9187 131.484 92.0816 131.682 96.1168 132.551C104.256 134.303 111.445 138.659 113.518 146.42L114.967 146.033ZM74.8681 132.841L74.0972 131.554C71.9523 132.84 70.4266 133.751 69.3321 134.435C68.2525 135.109 67.5084 135.614 66.9735 136.085C66.3795 136.609 66.0554 137.081 65.7713 137.628C65.4609 138.226 65.3859 138.475 64.9443 139.275L66.2577 140L67.5711 140.725C67.9714 139.999 68.3175 139.235 68.4339 139.01C68.5768 138.735 68.6856 138.575 68.9574 138.336C69.2884 138.044 69.8429 137.653 70.9219 136.979C71.9859 136.314 73.4787 135.422 75.639 134.128L74.8681 132.841ZM66.2577 140L64.9443 139.275C63.1281 142.568 62.5178 147.276 62.6171 152.248C62.7175 157.271 63.5484 162.781 64.8018 167.837L66.2577 167.476L67.7136 167.115C66.5033 162.233 65.7116 156.948 65.6165 152.188C65.5204 147.376 66.142 143.315 67.5711 140.725L66.2577 140ZM66.2577 167.476L64.8018 167.837C66.2793 173.797 71.9657 177.51 78.4745 180.212C85.044 182.94 93.1156 184.891 100.043 186.932L100.467 185.493L100.891 184.054C93.7414 181.948 85.9967 180.087 79.6249 177.441C73.1924 174.771 68.8126 171.548 67.7136 167.115L66.2577 167.476ZM100.467 185.493L100.043 186.932C105.852 188.644 112.555 188.407 120.073 186.927C127.598 185.445 136.068 182.69 145.462 179.245L144.946 177.837L144.429 176.429C135.068 179.861 126.779 182.549 119.494 183.983C112.202 185.419 106.043 185.572 100.891 184.054L100.467 185.493ZM144.946 177.837L145.462 179.245C156.312 175.267 164.727 166.468 171.135 155.422C177.546 144.37 182.023 130.941 184.951 117.459L183.485 117.141L182.019 116.823C179.132 130.118 174.743 143.223 168.54 153.917C162.333 164.618 154.385 172.778 144.429 176.429L144.946 177.837ZM183.485 117.141L184.951 117.459C189.498 96.521 180.134 82.1708 173.359 74.5291L172.237 75.5242L171.114 76.5193C177.562 83.7923 186.282 97.1955 182.019 116.823L183.485 117.141ZM172.237 75.5242L173.359 74.5291C171.485 72.4147 169.021 71.1223 166.504 70.2524C163.996 69.3853 161.32 68.9018 158.972 68.4816L158.707 69.9581L158.443 71.4346C160.823 71.8605 163.271 72.309 165.524 73.0878C167.77 73.864 169.707 74.9315 171.114 76.5193L172.237 75.5242ZM158.707 69.9581L158.972 68.4816C154.021 67.5957 149.178 67.57 143.735 71.4491L144.606 72.6706L145.476 73.8922C150.02 70.6539 153.937 70.6283 158.443 71.4346L158.707 69.9581ZM144.606 72.6706L143.735 71.4491C138.485 75.1902 132.773 82.6014 130.953 90.2232L132.412 90.5716L133.871 90.9201C135.501 84.0916 140.739 77.2683 145.476 73.8922L144.606 72.6706ZM132.412 90.5716L130.953 90.2232C129.1 97.9805 131.458 105.747 138.338 110.625L139.205 109.402L140.073 108.178C134.294 104.081 132.272 97.613 133.871 90.9201L132.412 90.5716ZM139.205 109.402L138.338 110.625C145.117 115.432 156.01 117.068 167.169 113.992L166.77 112.546L166.372 111.099C155.863 113.996 145.952 112.346 140.073 108.178L139.205 109.402ZM166.77 112.546L167.169 113.992C179.193 110.677 189.861 103.119 199.547 93.9874C209.231 84.8581 218.047 74.0444 226.304 64.1327L225.152 63.1726L223.999 62.2126C215.699 72.1761 207.012 82.8271 197.489 91.8045C187.968 100.78 177.723 107.97 166.372 111.099L166.77 112.546ZM225.152 63.1726L226.225 64.2205C249.965 39.9029 263.799 35.0493 279.077 24.4903L278.224 23.2563L277.371 22.0223C262.514 32.2904 248.085 37.5341 224.078 62.1248L225.152 63.1726ZM278.224 23.2563L279.077 24.4903C282.358 22.2227 285.661 19.4853 288.947 16.9943C292.285 14.4645 295.712 12.1005 299.469 10.3609L298.838 8.99975L298.208 7.63858C294.157 9.51431 290.527 12.0322 287.135 14.6035C283.691 17.2138 280.591 19.797 277.371 22.0223L278.224 23.2563Z" fill="#1D4ED8"/>
</svg>
